HIERARCHY
ROOT root
{
	OFFSET 0.000000 0.000000 0.000000
	CHANNELS 6 Xposition Yposition Zposition Zrotation Yrotation Xrotation
	JOINT lhip
	{
		OFFSET 0.058581 -0.082280 -0.017664
		CHANNELS 3 Zrotation Yrotation Xrotation
		JOINT lknee
		{
			OFFSET 0.043451 -0.386469 0.008037
			CHANNELS 3 Zrotation Yrotation Xrotation
			JOINT lankle
			{
				OFFSET -0.014790 -0.426874 -0.037428
				CHANNELS 3 Zrotation Yrotation Xrotation
				JOINT ltoe
				{
					OFFSET 0.041054 -0.060286 0.122042
					CHANNELS 3 Zrotation Yrotation Xrotation
					End Site
					{
						OFFSET 0.000000 0.000000 0.000000
					}
				}
			}
		}
	}
	JOINT rhip
	{
		OFFSET -0.060310 -0.090513 -0.013543
		CHANNELS 3 Zrotation Yrotation Xrotation
		JOINT rknee
		{
			OFFSET -0.043257 -0.383688 -0.004843
			CHANNELS 3 Zrotation Yrotation Xrotation
			JOINT rankle
			{
				OFFSET 0.019056 -0.420046 -0.034562
				CHANNELS 3 Zrotation Yrotation Xrotation
				JOINT rtoe
				{
					OFFSET -0.034840 -0.062106 0.130323
					CHANNELS 3 Zrotation Yrotation Xrotation
					End Site
					{
						OFFSET 0.000000 0.000000 0.000000
					}
				}
			}
		}
	}
	JOINT lowerback
	{
		OFFSET 0.004439 0.124404 -0.038385
		CHANNELS 3 Zrotation Yrotation Xrotation
		JOINT upperback
		{
			OFFSET 0.004488 0.137956 0.026820
			CHANNELS 3 Zrotation Yrotation Xrotation
			JOINT chest
			{
				OFFSET -0.002265 0.056032 0.002855
				CHANNELS 3 Zrotation Yrotation Xrotation
				JOINT lowerneck
				{
					OFFSET -0.013390 0.211636 -0.033468
					CHANNELS 3 Zrotation Yrotation Xrotation
					JOINT upperneck
					{
						OFFSET 0.010113 0.088937 0.050410
						CHANNELS 3 Zrotation Yrotation Xrotation
						End Site
						{
							OFFSET 0.000000 0.000000 0.000000
						}
					}
				}
				JOINT lclavicle
				{
					OFFSET 0.071702 0.114000 -0.018898
					CHANNELS 3 Zrotation Yrotation Xrotation
					JOINT lshoulder
					{
						OFFSET 0.122921 0.045205 -0.019046
						CHANNELS 3 Zrotation Yrotation Xrotation
						JOINT lelbow
						{
							OFFSET 0.255332 -0.015649 -0.022946
							CHANNELS 3 Zrotation Yrotation Xrotation
							JOINT lwrist
							{
								OFFSET 0.265709 0.012698 -0.007375
								CHANNELS 3 Zrotation Yrotation Xrotation
								End Site
								{
									OFFSET 0.000000 0.000000 0.000000
								}
							}
						}
					}
				}
				JOINT rclavicle
				{
					OFFSET -0.082954 0.112472 -0.023707
					CHANNELS 3 Zrotation Yrotation Xrotation
					JOINT rshoulder
					{
						OFFSET -0.113228 0.046853 -0.008472
						CHANNELS 3 Zrotation Yrotation Xrotation
						JOINT relbow
						{
							OFFSET -0.260127 -0.014369 -0.031269
							CHANNELS 3 Zrotation Yrotation Xrotation
							JOINT rwrist
							{
								OFFSET -0.269108 0.006794 -0.006027
								CHANNELS 3 Zrotation Yrotation Xrotation
								End Site
								{
									OFFSET 0.000000 0.000000 0.000000
								}
							}
						}
					}
				}
			}
		}
	}
}
MOTION
Frames: 8
Frame Time: 0.033333
0.992786 0.417375 0.994354 -85.927566 -3.190424 90.090826 6.825030 -12.955049 -18.746817 -7.374352 -7.760889 70.662050 4.963544 15.691623 -32.172294 0.000000 -0.000000 0.000000 -3.125405 -1.201711 -11.179959 2.491052 0.709385 16.826042 2.230238 -8.381351 -11.709967 0.000000 -0.000000 0.000000 -5.634746 3.128592 12.162600 2.186744 -5.691567 4.766284 -0.211519 -2.446404 7.139045 3.624199 1.853718 13.057573 3.803022 -0.335626 18.112138 -20.625461 4.745835 5.615956 -61.321719 -11.566554 6.207478 13.625808 -33.758634 3.275361 -0.038049 -2.932970 -14.502583 20.855592 -6.181030 4.106571 67.492662 -1.539287 9.998219 -18.857160 29.065531 -2.895613 12.018867 1.103780 -17.514902 
0.985630 0.423508 0.995105 -86.914443 -3.760248 89.398793 5.984877 -12.551179 -20.063171 -6.264227 -5.573268 74.595284 5.319852 16.392179 -32.288038 0.000000 -0.000000 0.000000 -3.171314 -1.248003 -9.697222 2.275205 1.077122 16.219139 2.196321 -7.562748 -11.672968 0.000000 -0.000000 0.000000 -5.727367 4.216490 12.632746 2.265954 -5.441225 5.157368 -0.074714 -2.236295 6.784202 3.570204 1.879328 13.444131 3.976744 -0.283506 17.904901 -20.582341 4.252981 5.596699 -61.624152 -11.327247 6.293248 13.563250 -34.641057 3.731579 -0.572373 -3.075637 -14.325640 20.994869 -5.790111 4.373436 67.197402 -1.270754 9.629336 -18.862896 29.129473 -3.034798 12.055287 0.999563 -17.261306 
0.982291 0.428642 0.995259 -87.083184 -3.899619 89.566688 6.642513 -14.213256 -23.821541 -6.465481 -1.365635 79.120353 5.369503 15.643077 -32.039484 0.000000 -0.000000 0.000000 -3.064726 -0.846601 -9.158639 2.452742 0.998243 15.205396 1.952497 -7.915813 -11.388586 0.000000 -0.000000 0.000000 -5.408338 4.640859 12.452501 2.572109 -5.706743 4.873745 -0.150435 -1.946595 7.069127 3.265398 1.516773 13.496028 4.089269 -0.115456 18.215852 -20.583343 4.089593 5.527742 -61.962925 -11.422796 6.894352 13.627810 -34.697469 4.067814 -1.025553 -3.083794 -13.626755 20.916232 -5.560803 4.420696 66.944062 -0.582634 10.021669 -19.435804 28.803725 -3.325276 13.623213 1.678799 -17.903329 
0.975585 0.433843 0.995673 -88.377328 -4.089532 89.052060 5.809418 -11.984433 -25.622858 -6.307862 0.497994 82.161233 5.563456 14.081236 -31.818947 0.000000 -0.000000 0.000000 -2.773479 -1.301737 -7.969924 2.191157 1.624040 14.861075 1.817847 -6.618323 -11.257418 0.000000 -0.000000 0.000000 -5.533825 5.670373 12.349530 2.767868 -5.459762 5.459612 0.075013 -1.665125 6.570882 3.100286 1.113434 14.663999 4.193421 -0.120175 17.859252 -20.827727 3.699344 5.784437 -61.980503 -10.812011 6.455230 13.511081 -34.983678 4.442760 -1.191218 -2.915801 -13.370951 21.119353 -5.094261 5.206779 66.175822 0.034859 9.187192 -19.082940 29.833909 -2.932372 13.331699 1.241832 -17.907733 
0.972137 0.438372 0.996044 -88.909400 -3.973008 88.770373 5.487323 -11.085650 -27.901899 -6.884014 2.806422 83.512384 5.508237 12.743142 -31.701274 0.000000 -0.000000 0.000000 -2.284444 -1.304321 -7.057840 2.134476 1.840778 14.187246 1.599038 -6.207848 -11.241906 0.000000 -0.000000 0.000000 -5.240415 6.168678 12.475962 2.984929 -5.521244 5.706005 0.127756 -1.404592 6.716876 3.068565 1.177118 14.226903 4.333337 -0.051489 17.882862 -20.877592 3.527218 5.249363 -62.021763 -10.210866 6.443416 13.290047 -35.173842 4.057041 -1.094895 -2.313338 -12.672936 21.115245 -4.796472 4.735162 65.862319 0.352822 9.283921 -19.394243 30.724774 -3.514845 13.857921 1.139471 -17.916765 
0.969622 0.442609 0.995431 -89.071602 -3.696955 88.949606 5.527245 -10.883536 -30.260403 -7.876046 5.353034 82.473951 4.703532 11.098972 -31.403393 0.000000 -0.000000 0.000000 -1.751962 -1.674743 -6.870505 2.231931 1.865646 13.835563 1.407082 -5.806287 -11.175684 0.000000 -0.000000 0.000000 -4.659366 6.127648 12.688301 3.044967 -5.746300 4.599188 -0.037451 -1.313385 7.237098 3.136331 1.245361 13.988678 4.277830 -0.017619 18.277404 -20.957958 4.009672 5.076241 -61.959381 -9.595833 6.225791 13.153352 -34.889795 4.330020 -1.132906 -3.358406 -12.536768 21.033583 -4.940456 4.754585 65.667079 1.205421 9.580084 -19.053372 31.456205 -2.905767 13.029188 1.426338 -18.308024 
0.966454 0.446222 0.995135 -89.459631 -3.507528 88.745174 4.584631 -9.845581 -30.832900 -8.844289 6.307068 78.680172 4.064942 9.571784 -29.753464 0.000000 -0.000000 0.000000 -1.249770 -1.718456 -6.335501 2.230778 2.163090 13.744473 1.110045 -5.567343 -11.454035 0.000000 -0.000000 0.000000 -4.365469 6.135270 12.756730 3.074084 -5.800580 4.485126 -0.043291 -1.188829 7.137560 2.875956 0.819480 14.327579 4.402319 -0.049216 18.482773 -21.239727 3.980976 5.190627 -61.712660 -8.872233 5.747350 13.333481 -34.295966 3.752082 -1.183143 -2.931747 -12.042599 20.931850 -4.715053 4.916932 65.670546 1.716685 9.232374 -19.187472 32.093745 -3.172106 14.104959 1.881508 -18.867151 
0.962552 0.449745 0.994817 -89.723764 -3.286471 88.431481 3.620226 -9.158635 -29.882319 -9.264337 6.522865 71.870553 2.828097 7.435100 -26.374681 0.000000 -0.000000 0.000000 -0.861470 -1.474767 -5.246178 2.329101 1.757240 12.892837 0.785637 -5.201739 -11.589584 0.000000 -0.000000 0.000000 -4.152800 6.097987 12.513999 3.097852 -5.871971 5.250215 -0.100912 -1.063861 7.008054 3.291454 1.175305 13.980440 4.137296 -0.615053 18.626465 -21.299454 4.216516 4.492536 -61.617229 -8.312550 5.944278 13.356265 -33.054669 3.099262 -1.631812 -2.965426 -11.144908 21.148174 -4.576506 4.338774 65.614594 1.950261 9.714553 -19.305904 32.563754 -3.819665 13.854997 2.011003 -18.954534 
